<?xml version="1.0" standalone="no"?>
<svg viewBox="0 0 200 200" xmlns="http://www.w3.org/2000/svg">
  <path fill="#FF4321" d="M47.7,-67.8C59.7,-66.5,65.9,-49.7,72.2,-33.6C78.5,-17.6,85,-2.2,81.8,11C78.7,24.1,65.9,35.1,54.7,46.6C43.5,58.1,33.8,70.1,23.3,67.9C12.8,65.7,1.6,49.3,-11.2,43.2C-24.1,37.2,-38.5,41.5,-53.2,38.4C-67.8,35.2,-82.8,24.6,-84.4,12.3C-86,-0.1,-74.1,-14.3,-64.8,-27.4C-55.4,-40.6,-48.5,-52.7,-38.2,-54.7C-27.8,-56.8,-13.9,-48.7,2,-51.8C17.9,-54.9,35.7,-69.1,47.7,-67.8Z" transform="translate(100 100)" />
</svg>
